# AST/ASF file generated using VICON BodyLanguage
# -----------------------------------------------
:version 1.10
:name VICON
:units
  mass 1.0
  length 0.45
  angle deg
:documentation
   .ast/.asf automatically generated from VICON data using
   VICON BodyBuilder and BodyLanguage model FoxedUp or BRILLIANT.MOD
:root
   order TX TY TZ RX RY RZ
   axis XYZ
   position 0 0 0  
   orientation 0 0 0 
:bonedata
  begin
     id 1 
     name lhipjoint
     direction 0.62366 -0.717238 0.310833 
     length 2.53602 
     axis 0 0 0  XYZ
  end
  begin
     id 2 
     name lfemur
     direction 0.34202 -0.939693 0  
     length 7.40817  
     axis 0 0 20  XYZ
    dof rx ry rz
    limits (-160.0 20.0)
           (-70.0 70.0)
           (-60.0 70.0)
  end
  begin
     id 3 
     name ltibia
     direction 0.34202 -0.939693 0   
     length 7.7045   
     axis 0 0 20   XYZ
    dof rx
    limits (-10.0 170.0)
  end
  begin
     id 4 
     name lfoot
     direction 0.0673888 -0.185149 0.980397   
     length 2.09456   
     axis -90 7.62852e-016 20   XYZ
    dof rx rz
    limits (-45.0 90.0)
           (-70.0 20.0)
  end
  begin
     id 5 
     name ltoes
     direction 1.53575e-011 -4.21994e-011 1   
     length 1.05543   
     axis -90 7.62852e-016 20   XYZ
    dof rx
    limits (-90.0 20.0)
  end
  begin
     id 6 
     name rhipjoint
     direction -0.489018 -0.800347 0.346851   
     length 2.27268  
     axis 0 0 0  XYZ 
  end
  begin
     id 7 
     name rfemur
     direction -0.34202 -0.939693 0   
     length 7.55487   
     axis 0 0 -20   XYZ
    dof rx ry rz
    limits (-160.0 20.0)
           (-70.0 70.0)
           (-70.0 60.0)
  end
  begin
     id 8 
     name rtibia
     direction -0.34202 -0.939693 0   
     length 7.78969   
     axis 0 0 -20   XYZ
    dof rx
    limits (-10.0 170.0)
 end
 begin
     id 9 
     name rfoot
     direction -0.0859318 -0.236096 0.967923   
     length 2.19143  
     axis -90 -7.62852e-016 -20   XYZ
    dof rx rz
    limits (-45.0 90.0)
           (-20.0 70.0)
  end
  begin
     id 10 
     name rtoes
     direction -1.53538e-011 -4.21989e-011 1   
     length 1.09845   
     axis -90 -7.62852e-016 -20   XYZ
    dof rx
    limits (-90.0 20.0)
  end
  begin
     id 11 
     name lowerback
     direction -0.00762546 0.998978 -0.0445553   
     length 1.98161   
     axis 0 0 0   XYZ
    dof rx ry rz
    limits (-20.0 45.0)
           (-30.0 30.0)
           (-30.0 30.0)
  end
  begin
     id 12 
     name upperback
     direction 0.0422361 0.998867 -0.0219156   
     length 1.97558   
     axis 0 0 0   XYZ
    dof rx ry rz
    limits (-20.0 45.0)
           (-30.0 30.0)
           (-30.0 30.0)
  end
  begin
     id 13 
     name thorax
     direction 0.0442465 0.999021 7.47603e-005   
     length 1.97799   
     axis 0 0 0   XYZ
    dof rx ry rz
    limits (-20.0 45.0)
           (-30.0 30.0)
           (-30.0 30.0)
  end
  begin
     id 14 
     name lowerneck
     direction 0.00312169 0.984641 0.174564   
     length 1.78995   
     axis 0 0 0   XYZ
    dof rx ry rz
    limits (-20.0 45.0)
           (-30.0 30.0)
           (-30.0 30.0)
  end
  begin
     id 15 
     name upperneck
     direction -0.0383028 0.985255 -0.166749   
     length 1.83053   
     axis 0 0 0   XYZ
    dof rx ry rz
    limits (-20.0 45.0)
           (-30.0 30.0)
           (-30.0 30.0)
  end
  begin
     id 16
     name head
     direction -0.0129546 0.997059 -0.0755386  
     length 1.84088  
     axis 0 0 0   XYZ
    dof rx ry rz
    limits (-20.0 45.0)
           (-30.0 30.0)
           (-30.0 30.0)
  end
  begin
     id 17 
     name lclavicle
     direction 0.912857 0.370519 -0.171488  
     length 3.51279  
     axis 0 0 0   XYZ
    dof ry rz
    limits (-20.0 10.0)
           (0.0 20.0)
  end
  begin
     id 18 
     name lhumerus
     direction 1 -4.48962e-011 3.64361e-027   
     length 4.95663   
     axis 180 -30 -90   XYZ
    dof rx ry rz
    limits (-60.0 90.0)
           (-90.0 90.0)
           (-90.0 90.0)
  end
  begin
     id 19
     name lradius
     direction 1 -4.48974e-011 5.97202e-027   
     length 3.38177   
     axis 180 -30 -90   XYZ
    dof rx
    limits (-10.0 170.0)
  end
  begin
     id 20
     name lwrist
     direction 1 -4.4896e-011 9.83288e-027   
     length 1.69088   
     axis -9.31221e-015 90 90   XYZ
    dof ry
    limits (-180.0 0.0)
 end
  begin
     id 21 
     name lhand
     direction 1 -4.4902e-011 1.96551e-026   
     length 0.662909   
     axis -1.25475e-014 90 90   XYZ
    dof rx rz
    limits (-90.0 90.0)
           (-45.0 45.0)
  end
  begin
     id 22 
     name lfingers
     direction 1 -4.48971e-011 3.93277e-026   
     length 0.534454   
     axis -2.50945e-014 90 90   XYZ
    dof rx
    limits (0.0 90.0)
  end
  begin
     id 23
     name lthumb
     direction 0.707107 -6.34933e-011 0.707107   
     length 0.767373   
     axis -90 45 -4.80359e-014   XYZ
    dof rx rz
    limits (-45.0 45.0)
           (-45.0 45.0)
  end
  begin
     id 24 
     name rclavicle
     direction -0.900919 0.395364 -0.178976   
     length 3.40627  
     axis 0 0 0   XYZ 
    dof ry rz
    limits (-10.0 20.0)
           (-20.0 0.0)
  end
  begin
     id 25 
     name rhumerus
     direction -1 -4.48969e-011 1.03875e-027  
     length 5.08365   
     axis 180 30 90   XYZ
    dof rx ry rz
    limits (-90.0 60.0)
           (-90.0 90.0)
           (-90.0 90.0)
  end
  begin
     id 26 
     name rradius
     direction -1 -4.48951e-011 5.02733e-027   
     length 3.35984   
     axis 180 30 90   XYZ
    dof rx
    limits (-10.0 170.0)
  end
  begin
     id 27 
     name rwrist
     direction -1 -4.49011e-011 9.82828e-027   
     length 1.67992   
     axis -9.31221e-015 -90 -90   XYZ
    dof ry
    limits (-180.0 0.0)
  end
  begin
     id 28
     name rhand
     direction -1 -4.48894e-011 1.96774e-026   
     length 0.820764   
     axis -1.25475e-014 -90 -90   XYZ
    dof rx rz
    limits (-90.0 90.0)
           (-45.0 45.0)
  end
  begin
     id 29
     name rfingers
     direction -1 -4.49095e-011 3.92833e-026   
     length 0.661721   
     axis -2.50945e-014 -90 -90   XYZ
    dof rx
    limits (0.0 90.0)
  end
  begin
     id 30
     name rthumb
     direction -0.707107 -6.34881e-011 0.707107   
     length 0.950103   
     axis -90 -45 4.80359e-014   XYZ
    dof rx rz
    limits (-45.0 45.0)
           (-45.0 45.0)
  end
:hierarchy
  begin
    root lhipjoint rhipjoint lowerback
    lhipjoint lfemur
    lfemur ltibia
    ltibia lfoot
    lfoot ltoes
    rhipjoint rfemur
    rfemur rtibia
    rtibia rfoot
    rfoot rtoes
    lowerback upperback
    upperback thorax
    thorax lowerneck lclavicle rclavicle
    lowerneck upperneck
    upperneck head
    lclavicle lhumerus
    lhumerus lradius
    lradius lwrist
    lwrist lhand lthumb
    lhand lfingers
    rclavicle rhumerus
    rhumerus rradius
    rradius rwrist
    rwrist rhand rthumb
    rhand rfingers
  end

#!OML:ASF I:\golf\golf\golf 2\Subject 1\2002-09-07\Subject1.ASF
:FULLY-SPECIFIED
:DEGREES
53
root -8.68175 18.0425 5.38081 -24.0149 84.0063 -43.0207
lowerback 7.24765 2.03167 -0.986864
upperback 7.52655 2.88675 4.37193
thorax 3.48842 1.4155 4.98981
lowerneck -10.2929 4.43936 6.35203
upperneck 40.5667 9.02279 -4.03552
head 16.9599 4.71682 -1.24477
rclavicle -2.98177e-014 -3.26007e-014
rhumerus -17.675 38.0644 -95.7025
rradius 58.4164
rwrist -55.8857
rhand -33.7485 -15.877
rfingers 7.12502
rthumb -6.93678 -45.7433
lclavicle -2.98177e-014 -3.26007e-014
lhumerus -18.3535 -47.5948 107.041
lradius 61.9234
lwrist 63.3382
lhand -14.2201 65.9549
lfingers 7.12502
lthumb -168.083 84.4042
rfemur -37.0872 -1.19763 20.2134
rtibia 28.112
rfoot -5.52345 -2.67348
rtoes 3.90225
lfemur -34.742 4.0707 -12.443
ltibia 25.9561
lfoot -7.93372 -4.09597
ltoes -11.9347
54
root -8.68202 18.0428 5.37966 -23.6705 84.0506 -42.6703
lowerback 7.27937 2.05316 -0.936929
upperback 7.52851 2.91781 4.31469
thorax 3.47451 1.43466 4.89827
lowerneck -10.0934 4.60122 6.59364
upperneck 40.4182 9.2054 -4.06087
head 16.8613 4.82614 -1.27363
rclavicle 3.26007e-014 3.73715e-014
rhumerus -17.6186 37.9164 -95.7144
rradius 58.3455
rwrist -55.7787
rhand -33.6567 -15.8054
rfingers 7.12502
rthumb -6.84816 -45.6747
lclavicle 3.26007e-014 3.73715e-014
lhumerus -18.3865 -47.7666 107.032
lradius 61.912
lwrist 63.446
lhand -14.3313 65.9384
lfingers 7.12502
lthumb -168.19 84.4146
rfemur -37.0874 -1.20343 20.1427
rtibia 28.1241
rfoot -5.54037 -2.66084
rtoes 3.34639
lfemur -34.7424 4.09623 -12.5301
ltibia 25.9463
lfoot -7.8901 -4.14517
ltoes -11.8454
55
root -8.68214 18.0425 5.37881 -23.4367 84.1114 -42.4301
lowerback 7.31708 2.06338 -0.975912
upperback 7.5396 2.93099 4.33084
thorax 3.4618 1.43976 4.93548
lowerneck -10.2314 4.72609 6.82149
upperneck 40.5166 9.35282 -4.09111
head 16.9831 4.9117 -1.29505
rclavicle -3.26007e-014 -4.69132e-014
rhumerus -17.579 37.9191 -95.6281
rradius 58.3377
rwrist -55.8156
rhand -33.8422 -15.8437
rfingers 7.12502
rthumb -7.02729 -45.7071
lclavicle -3.26007e-014 -4.69132e-014
lhumerus -18.3677 -47.8213 107.086
lradius 61.8953
lwrist 63.5039
lhand -14.3976 65.9124
lfingers 7.12502
lthumb -168.254 84.4369
rfemur -37.0768 -1.25797 20.0831
rtibia 28.1189
rfoot -5.58607 -2.63695
rtoes 3.41187
lfemur -34.7461 4.05717 -12.6013
ltibia 25.9431
lfoot -7.88713 -4.13121
ltoes -11.9418
56
root -8.68203 18.0429 5.37895 -23.4678 84.0904 -42.4763
lowerback 7.32061 2.1017 -0.951501
upperback 7.54822 2.9834 4.34729
thorax 3.46442 1.46691 4.93649
lowerneck -10.4062 4.77649 6.98866
upperneck 40.6994 9.38638 -4.04573
head 17.1423 4.95291 -1.29022
rclavicle 5.60573e-014 5.48646e-014
rhumerus -17.537 37.889 -95.565
rradius 58.329
rwrist -55.7939
rhand -34.0778 -15.8946
rfingers 7.12502
rthumb -7.25469 -45.7502
lclavicle 5.60573e-014 5.48646e-014
lhumerus -18.3768 -47.9603 107.113
lradius 61.9127
lwrist 63.5574
lhand -14.5732 65.9506
lfingers 7.12502
lthumb -168.424 84.3892
rfemur -37.0923 -1.23444 20.0886
rtibia 28.1159
rfoot -5.56264 -2.62555
rtoes 3.68301
lfemur -34.752 4.02455 -12.5718
ltibia 25.9339
lfoot -7.92625 -4.06961
ltoes -11.9658
57
root -8.68231 18.0437 5.37901 -23.7075 84.0601 -42.7273
lowerback 7.32853 2.10687 -0.893782
upperback 7.55888 2.99352 4.36409
thorax 3.47212 1.47439 4.92114
lowerneck -10.427 4.85838 7.04742
upperneck 40.7754 9.49091 -3.99792
head 17.201 5.00958 -1.2586
rclavicle 1.35174e-014 3.4191e-014
rhumerus -17.5031 37.9214 -95.551
rradius 58.2808
rwrist -55.6704
rhand -33.9483 -15.7367
rfingers 7.12502
rthumb -7.12966 -45.5966
lclavicle 1.35174e-014 3.4191e-014
lhumerus -18.3351 -48.0109 107.095
lradius 61.9028
lwrist 63.643
lhand -14.7584 65.931
lfingers 7.12502
lthumb -168.602 84.3988
rfemur -37.0992 -1.14582 20.099
rtibia 28.1182
rfoot -5.54573 -2.70163
rtoes 4.12167
lfemur -34.7564 4.01616 -12.5126
ltibia 25.9306
lfoot -7.9445 -4.06625
ltoes -11.875
